<svg width="480" height="94" viewBox="0 0 480 94" fill="none" xmlns="http://www.w3.org/2000/svg">
<rect width="480" height="94" fill="#3B72DA"/>
<g clip-path="url(#clip0_3716_1232)">
<path d="M210.435 69.8745L210.635 69.2236C210.191 68.9712 209.76 68.6962 209.345 68.3995C208.545 67.7918 207.823 67.1042 207.31 66.2235C207.034 65.7507 207.049 65.2912 207.405 64.88C207.683 64.5675 207.98 64.2733 208.296 63.9993C208.928 63.4349 209.613 62.9238 210.204 62.3195C210.991 61.5121 211.103 60.5714 210.537 59.6025C210.198 59.0555 209.804 58.5441 209.363 58.0758C208.557 57.1818 207.708 56.3294 206.892 55.4454C206.326 54.8344 206.193 54.1135 206.326 53.2911C206.459 52.5207 206.536 51.7418 206.558 50.9603C206.583 49.4353 205.525 48.5214 204.278 48.1717C203.994 48.0902 203.851 47.9786 203.826 47.6956C203.817 47.6007 203.786 47.5058 203.772 47.4109C203.581 46.0607 202.827 45.185 201.528 44.7821C201.069 44.6406 200.599 44.5257 200.131 44.4109C199.515 44.2594 198.891 44.1395 198.378 43.725C198.094 43.4935 197.935 43.2355 198.084 42.8576C198.124 42.7241 198.154 42.5877 198.174 42.4497C198.241 42.1818 198.228 41.8999 198.135 41.6397C198.042 41.3795 197.874 41.1526 197.652 40.988C197.231 40.6338 196.704 40.4285 196.154 40.4036C195.367 40.3587 194.622 40.5784 193.872 40.7599C192.966 40.9813 192.072 41.0829 191.208 40.5851C190.782 40.337 190.34 40.1106 189.923 39.8476C189.295 39.4497 188.692 39.0151 188.258 38.3991C187.9 37.8997 187.94 37.5401 188.436 37.1822C188.776 36.9582 189.131 36.7579 189.498 36.5828C190.066 36.2831 190.663 36.0284 191.206 35.6905C192.16 35.1011 192.871 34.2887 192.961 33.1299C193.011 32.5173 192.913 31.8896 192.843 31.2753C192.756 30.5162 192.628 29.7653 192.806 29.0028C192.856 28.7864 192.914 28.6599 193.167 28.7598C193.5 28.8879 193.833 28.9928 194.166 29.1227C194.924 29.4224 195.665 29.777 196.437 30.0234C197.111 30.2365 197.806 30.1799 198.312 29.6038C198.934 28.8946 199.199 28.0639 198.938 27.1216C198.868 26.8846 198.779 26.6536 198.673 26.4306C198.648 26.3951 198.632 26.3543 198.625 26.3114C198.618 26.2685 198.621 26.2246 198.634 26.183C198.646 26.1415 198.668 26.1034 198.698 26.0716C198.728 26.0398 198.764 26.0151 198.804 25.9995C199.191 25.8147 199.57 25.5666 199.98 25.5C200.979 25.3202 202.134 25.4068 202.499 26.7886C202.499 26.8086 202.509 26.8302 202.517 26.8502C202.709 27.3964 202.932 27.9317 203.183 28.4534C203.321 28.7165 203.598 29.0111 203.864 29.0761C204.434 29.2297 205.025 29.286 205.614 29.2426C206.508 29.134 207.393 28.9609 208.262 28.7248C209.856 28.3221 211.404 27.7587 212.884 27.0433C213.094 26.9418 213.217 26.9501 213.287 27.2098C213.567 28.2087 213.828 29.2209 213.735 30.2814C213.617 31.6033 214.514 32.2692 215.378 32.6238C215.593 32.7156 215.828 32.7465 216.059 32.7134C216.29 32.6802 216.508 32.5841 216.688 32.4357C216.994 32.2026 217.261 31.9196 217.557 31.6716C217.638 31.5942 217.745 31.5486 217.857 31.5434C219.215 31.6799 219.62 31.8597 219.888 33.2265C219.93 33.5111 220.053 33.7774 220.243 33.9938C220.432 34.2102 220.68 34.3675 220.957 34.4468C221.249 34.5532 221.553 34.6236 221.862 34.6566C222.978 34.7176 224.094 34.7609 225.21 34.7865C226.376 34.8131 227.533 34.8331 228.667 35.1194C229.8 35.4058 230.766 35.9518 231.289 37.064C231.626 37.7708 231.754 38.5594 231.657 39.3365H232.056C232.206 38.2969 231.99 37.2378 231.445 36.3397C230.828 35.2942 229.814 34.7865 228.683 34.4818C227.408 34.1388 226.098 34.0889 224.788 34.0273C223.867 33.984 222.945 33.9224 222.026 33.8325C221.065 33.7376 220.88 33.5445 220.67 32.6039C220.436 31.5434 219.808 30.8724 218.721 30.6743C218.435 30.6227 218.148 30.5827 217.862 30.5328C217.703 30.5018 217.539 30.5104 217.385 30.5581C217.23 30.6057 217.09 30.6908 216.976 30.8058C216.74 31.0409 216.492 31.2632 216.232 31.4718C216.094 31.5816 215.918 31.633 215.743 31.6149C215.077 31.4368 214.744 30.8774 214.829 30.1849C214.878 29.8776 214.884 29.565 214.849 29.2559C214.709 28.4101 214.557 27.5644 214.349 26.7336C214.134 25.8679 213.297 25.5167 212.479 25.9012C210.713 26.7073 208.859 27.3051 206.954 27.6826C206.218 27.8324 205.49 28.0289 204.725 27.8924C204.604 27.8871 204.488 27.844 204.393 27.7694C204.298 27.6947 204.229 27.5922 204.195 27.4762C203.952 26.7786 203.671 26.0927 203.381 25.4118C203.191 24.9711 202.837 24.6215 202.394 24.4362C200.804 23.732 199.264 23.8485 197.759 24.9922C197.511 25.1696 197.325 25.4205 197.228 25.7095C197.13 25.9985 197.126 26.3108 197.216 26.6021C197.282 26.851 197.368 27.0938 197.474 27.328C197.562 27.508 197.595 27.7095 197.571 27.9082C197.546 28.1068 197.464 28.2939 197.334 28.4468C197.291 28.5005 197.235 28.5435 197.172 28.5723C197.109 28.6012 197.041 28.6152 196.972 28.6132C196.567 28.5108 196.171 28.3806 195.784 28.2237C195.099 27.9473 194.438 27.5994 193.74 27.363C192.441 26.9234 191.609 27.4329 191.324 28.7681C191.118 29.7337 191.22 30.6943 191.389 31.6482C191.676 33.2465 191.363 33.9391 189.928 34.6999C189.36 35.0012 188.762 35.2426 188.188 35.5323C187.569 35.8553 187.022 36.2798 186.718 36.9291C186.283 37.8514 186.575 38.6705 187.154 39.4164C187.749 40.1568 188.489 40.7676 189.328 41.2111C190.057 41.6443 190.825 42.0077 191.622 42.2965C192.58 42.6095 193.554 42.3282 194.513 42.1151C195.064 41.9864 195.625 41.9061 196.191 41.8753C196.669 41.8553 196.805 42.0884 196.69 42.5413C196.469 43.3737 196.652 44.0962 197.314 44.6323C197.724 44.9754 198.187 45.2477 198.686 45.4381C199.45 45.7078 200.26 45.8526 201.047 46.0641C201.803 46.2688 202.324 46.705 202.439 47.5291C202.465 47.7189 202.525 47.9054 202.562 48.0952C202.71 48.8593 203.098 49.3221 203.936 49.437C204.588 49.5269 205.347 50.068 205.302 50.987C205.284 51.6726 205.228 52.3567 205.136 53.0364C204.943 54.2384 205.172 55.3072 206.012 56.1996C206.677 56.9204 207.4 57.6047 208.076 58.3256C208.617 58.8768 209.127 59.457 209.604 60.0637C210.006 60.5947 209.957 61.0409 209.541 61.562C209.311 61.8451 209.059 62.1095 208.787 62.3528C208.222 62.8672 207.621 63.3384 207.075 63.8728C206.076 64.8584 206.007 65.8839 206.842 67.0093C207.519 67.903 208.353 68.6657 209.303 69.2602C209.664 69.4929 210.043 69.6982 210.435 69.8745Z" fill="white"/>
<path d="M217.321 51.8377V44.1645H214.542V41.9286H222.638V44.1645H219.876V51.846L217.321 51.8377Z" fill="white"/>
<path d="M229.384 51.8377L227.719 48.508H226.417V51.8377H223.857V41.9286H228.82C231.017 41.9286 232.266 43.3837 232.266 45.2266C232.266 46.9497 231.211 47.8704 230.29 48.1967L232.311 51.8377H229.384ZM229.666 45.2116C229.666 44.5457 229.101 44.1561 228.432 44.1561H226.417V46.2805H228.432C229.101 46.2805 229.666 45.9092 229.666 45.2116Z" fill="white"/>
<path d="M240.402 51.8377L239.913 50.4109H236.01L235.519 51.8377H232.622L236.352 41.9286H239.56L243.304 51.8377H240.402ZM237.951 44.4541L236.688 48.1817H239.213L237.951 44.4541Z" fill="white"/>
<path d="M244.033 51.8377V41.9286H249.649C251.61 41.9286 252.545 43.2055 252.545 44.4541C252.545 45.7028 251.788 46.5185 250.851 46.7266C251.906 46.8931 252.738 47.9004 252.738 49.1473C252.738 50.5891 251.773 51.8377 249.827 51.8377H244.033ZM249.945 44.8987C249.945 44.4242 249.589 44.0829 249.069 44.0829H246.587V45.7311H249.069C249.183 45.7395 249.297 45.724 249.404 45.6857C249.511 45.6475 249.609 45.5872 249.691 45.5088C249.774 45.4304 249.839 45.3356 249.883 45.2305C249.926 45.1255 249.948 45.0124 249.945 44.8987ZM250.138 48.791C250.138 48.3016 249.782 47.9004 249.157 47.9004H246.587V49.6834H249.157C249.767 49.6834 250.138 49.3255 250.138 48.791Z" fill="white"/>
<path d="M260.865 51.8377L260.38 50.4109H256.468L255.968 51.8377H253.071L256.801 41.9286H260.01L263.753 51.8377H260.865ZM258.414 44.4541L257.15 48.1817H259.676L258.414 44.4541Z" fill="white"/>
<path d="M264.491 51.8377V41.9286H267.039V49.6085H271.035V51.8377H264.491Z" fill="white"/>
<path d="M279.026 51.8377V47.8554H274.904V51.8377H272.349V41.9286H274.904V45.6279H279.026V41.9286H281.582V51.8377H279.026Z" fill="white"/>
<path d="M290.087 51.8377L289.598 50.4109H285.686L285.196 51.8377H282.303L286.032 41.9286H289.242L292.984 51.8377H290.087ZM287.637 44.4541L286.373 48.1817H288.899L287.637 44.4541Z" fill="white"/>
<path d="M214.644 73.6853V56.2845H221.793C224.714 56.2845 226.592 57.9793 226.592 60.7196C226.592 62.9105 225.106 64.3972 223.541 64.7152C225.392 65.0016 226.932 66.9328 226.932 68.9938C226.932 71.889 225.054 73.6887 221.949 73.6887L214.644 73.6853ZM225.027 60.8761C225.027 59.1014 223.862 57.6413 221.609 57.6413H216.13V64.0842H221.609C223.854 64.0842 225.027 62.6758 225.027 60.8761ZM225.36 68.8856C225.36 67.1109 224.133 65.4411 221.708 65.4411H216.13V72.3302H221.714C224.01 72.3302 225.367 70.9983 225.367 68.8856H225.36Z" fill="white"/>
<path d="M240.865 73.6853L235.985 66.4849H232.156V73.6853H230.663V56.2845H237.156C240.152 56.2845 242.453 58.1891 242.453 61.3722C242.453 64.5354 240.209 66.2768 237.625 66.3817L242.66 73.6853H240.865ZM240.89 61.3656C240.89 59.173 239.325 57.6347 237.029 57.6347H232.151V65.1264H237.029C239.325 65.1281 240.89 63.5631 240.89 61.3722V61.3656Z" fill="white"/>
<path d="M258.762 73.6853L257.04 69.4067H247.831L246.109 73.6853H244.388L251.51 56.2845H253.361L260.485 73.6853H258.762ZM252.422 57.8694L248.327 68.0432H256.551L252.422 57.8694Z" fill="white"/>
<path d="M261.632 71.233L262.598 70.1126C263.263 70.9045 264.094 71.5413 265.031 71.9785C265.969 72.4156 266.991 72.6425 268.025 72.6431C271.599 72.6431 272.617 70.6603 272.617 69.172C272.617 64.0593 262.181 66.7197 262.181 60.6413C262.181 57.7978 264.737 55.9965 267.893 55.9965C270.504 55.9965 272.433 56.9105 273.79 58.4504L272.8 59.5459C271.546 58.0326 269.773 57.3533 267.817 57.3533C265.494 57.3533 263.746 58.6852 263.746 60.5631C263.746 65.0249 274.182 62.5709 274.182 69.0687C274.182 71.3113 272.695 74 267.998 74C265.128 74 262.964 72.8513 261.632 71.233Z" fill="white"/>
<path d="M277.756 73.6853V56.2845H279.244V73.6853H277.756Z" fill="white"/>
<path d="M283.575 73.6853V56.2845H285.061V72.3302H293.489V73.6853H283.575Z" fill="white"/>
</g>
<defs>
<clipPath id="clip0_3716_1232">
<rect width="106.981" height="50" fill="white" transform="translate(186.51 24)"/>
</clipPath>
</defs>
</svg>
